# xmcd
#
# Track frame offsets: 
#        150
#        16845
#        33003
#        46494
#        60644
#        76316
#        90262
#        104175
#        118791
#        135045
#
# Disc length: 2020 seconds
#
# Revision: 1
# Processed by: cddbd v1.5.2PL0 Copyright (c) Steve Scherf et al.
# Submitted via: ExactAudioCopy v0.95b4
#
DISCID=7007e20a
DTITLE=ลูกแพร อุไรพร - ผู้บ่าวยางชุม
DYEAR=2006
DGENRE=Country
TTITLE0=ผู้บ่าวยางชุม
TTITLE1=เคี'ให้ใจ
TTITLE2=นครนี้ไม่มีสวรรค์
TTITLE3=ขาประจำช้ำใจ
TTITLE4=สุดท้ายก้ได้แค่นี้
TTITLE5=หนุ่มบ้านนอกรอนาง
TTITLE6=ขี้แพ้ควรไป
TTITLE7=เจ็บใจให้มือถือ
TTITLE8=แพ้เสี่ยไฮโซ
TTITLE9=บักหัวล้าน
EXTD=
EXTT0=
EXTT1=
EXTT2=
EXTT3=
EXTT4=
EXTT5=
EXTT6=
EXTT7=
EXTT8=
EXTT9=
PLAYORDER=
